<svg width="32" height="32" viewBox="0 0 32 32" fill="none" xmlns="http://www.w3.org/2000/svg">
<g clip-path="url(#clip0_2325_1666)">
<mask id="mask0_2325_1666" style="mask-type:luminance" maskUnits="userSpaceOnUse" x="0" y="0" width="32" height="32">
<path d="M32 0H0V32H32V0Z" fill="white"/>
</mask>
<g mask="url(#mask0_2325_1666)">
<path d="M31.7734 15.9283C31.8123 24.7644 24.7318 31.9606 15.9586 31.9998C7.18417 32.0391 0.0402257 24.9079 0.000159952 16.0717C-0.0387927 7.2345 7.0417 0.039393 15.815 0.000161124C24.5894 -0.0390707 31.7333 7.09103 31.7723 15.9283H31.7734Z" fill="#8DC63F"/>
<path d="M30.5748 15.933C30.6115 24.1044 24.0641 30.7581 15.9519 30.7951C7.83857 30.8321 1.2322 24.2378 1.19547 16.0664C1.15874 7.89496 7.70614 1.24123 15.8194 1.20425C23.9316 1.16838 30.538 7.76156 30.5748 15.933Z" fill="#F9E988"/>
<path d="M16.1562 2.16277C17.0822 1.98006 18.0438 2.00472 18.9809 2.15716C19.918 2.31521 20.8417 2.60665 21.6775 3.06622C22.5145 3.53026 23.239 4.15909 23.9602 4.74983C24.6791 5.34726 25.398 5.94359 26.0803 6.59933C26.7692 7.24833 27.3869 7.98476 27.8877 8.79853C28.3974 9.60559 28.8415 10.462 29.1554 11.3688C29.7686 13.1835 29.9811 15.1395 29.6762 17.0047H29.5816C29.2744 15.1552 28.8571 13.3943 28.206 11.7174C27.8888 10.879 27.546 10.0472 27.1198 9.25363C26.6846 8.46676 26.2194 7.68996 25.6908 6.94343C25.1566 6.20363 24.5222 5.52326 23.7743 4.99529C23.0286 4.46063 22.1706 4.11316 21.3414 3.78359C20.5101 3.44956 19.682 3.12787 18.8195 2.87791C17.9581 2.62122 17.0755 2.43963 16.1562 2.25692V2.16165V2.16277Z" fill="white"/>
<path d="M23.3355 10.7051C22.2693 10.3947 21.1653 9.95303 20.0457 9.50803C19.9811 9.22553 19.7329 8.8736 19.2299 8.44203C18.4987 7.8031 17.1253 7.81993 15.9389 8.1024C14.629 7.7919 13.3347 7.68093 12.0926 7.98133C1.93597 10.8004 7.69431 17.675 3.96484 24.5876C4.49571 25.7208 10.2151 32.3364 18.4909 30.5609C18.4909 30.5609 15.6607 23.711 22.0478 20.4223C27.2286 17.7557 30.9714 12.8035 23.3344 10.704L23.3355 10.7051Z" fill="#8BC53F"/>
<path d="M24.5875 15.2094C24.5875 15.5513 24.3137 15.8304 23.9742 15.8315C23.6348 15.8338 23.3577 15.5569 23.3555 15.2139C23.3532 14.872 23.6281 14.5929 23.9687 14.5918C24.3081 14.5896 24.5852 14.8664 24.5875 15.2083V15.2094Z" fill="white"/>
<path d="M15.9414 8.10304C16.6815 8.15571 19.357 9.03564 20.047 9.50754C19.475 7.82617 17.5351 7.60311 15.9414 8.10304Z" fill="#009345"/>
<path d="M16.6414 12.3536C16.6414 13.9341 15.3693 15.2141 13.8012 15.2141C12.233 15.2141 10.9609 13.9341 10.9609 12.3536C10.9609 10.7731 12.233 9.49414 13.8012 9.49414C15.3693 9.49414 16.6414 10.7742 16.6414 12.3536Z" fill="white"/>
<path d="M15.8001 12.3802C15.8001 13.491 14.9053 14.3922 13.8024 14.3922C12.6995 14.3922 11.8047 13.4921 11.8047 12.3802C11.8047 11.2682 12.6995 10.3682 13.8024 10.3682C14.9053 10.3682 15.8001 11.2694 15.8001 12.3802Z" fill="#58595B"/>
<path d="M26.8925 16.4697C24.5921 18.1029 21.9734 19.3415 18.2617 19.3415C16.5244 19.3415 16.1716 17.4819 15.0231 18.3932C14.4299 18.864 12.3398 19.9165 10.6804 19.8369C9.00652 19.7562 6.33439 18.7765 5.58315 15.2109C5.28599 18.7765 5.13462 21.404 3.80469 24.4147C6.45235 28.6842 12.7638 31.9775 18.4932 30.5618C17.8778 26.2317 21.635 21.9913 23.7518 19.8212C24.5532 18.9996 26.089 17.6579 26.8925 16.4697Z" fill="#8BC53F"/>
<path d="M26.7996 16.577C26.085 17.2328 25.2348 17.7192 24.3689 18.1474C23.4941 18.5633 22.5826 18.9018 21.6411 19.1473C20.7029 19.3916 19.7224 19.5754 18.7297 19.4858C17.7547 19.3995 16.7241 19.0542 16.0664 18.3066L16.0976 18.2707C16.9089 18.7975 17.8337 18.9825 18.7586 19.0094C19.6834 19.0341 20.6261 18.9646 21.5554 18.7751C22.4825 18.5823 23.3929 18.2943 24.2732 17.9288C25.1513 17.5634 26.0194 17.1408 26.7684 16.54L26.7984 16.5759L26.7996 16.577Z" fill="#58595B"/>
</g>
</g>
<defs>
<clipPath id="clip0_2325_1666">
<rect width="32" height="32" fill="white"/>
</clipPath>
</defs>
</svg>
