<svg width="33" height="32" viewBox="0 0 33 32" fill="none" xmlns="http://www.w3.org/2000/svg">
<g clip-path="url(#clip0_62_37)">
<path d="M16.5 32C25.3366 32 32.5 24.8366 32.5 16C32.5 7.16344 25.3366 0 16.5 0C7.66344 0 0.5 7.16344 0.5 16C0.5 24.8366 7.66344 32 16.5 32Z" fill="#2AABEE"/>
<path fill-rule="evenodd" clip-rule="evenodd" d="M7.74248 15.8311C12.4068 13.7989 15.5171 12.4592 17.0733 11.8119C21.5167 9.96375 22.44 9.6427 23.0418 9.6321C23.1741 9.62977 23.4701 9.66257 23.6618 9.81812C23.8237 9.94947 23.8682 10.1269 23.8895 10.2514C23.9108 10.376 23.9373 10.6596 23.9163 10.8813C23.6755 13.4113 22.6336 19.5508 22.1035 22.3845C21.8792 23.5835 21.4376 23.9855 21.0101 24.0248C20.0809 24.1103 19.3754 23.4108 18.4754 22.8209C17.0672 21.8978 16.2717 21.3231 14.9048 20.4224C13.3251 19.3814 14.3491 18.8092 15.2494 17.8742C15.485 17.6295 19.5789 13.9058 19.6581 13.568C19.668 13.5257 19.6772 13.3683 19.5836 13.2851C19.4901 13.202 19.352 13.2304 19.2524 13.253C19.1111 13.2851 16.8615 14.772 12.5035 17.7138C11.8649 18.1523 11.2866 18.3659 10.7683 18.3547C10.1971 18.3424 9.09814 18.0317 8.28121 17.7661C7.27921 17.4404 6.48284 17.2682 6.55218 16.7151C6.5883 16.4269 6.98507 16.1323 7.74248 15.8311Z" fill="white"/>
</g>
<defs>
<clipPath id="clip0_62_37">
<rect width="32" height="32" fill="white" transform="translate(0.5)"/>
</clipPath>
</defs>
</svg>
